<svg xmlns="http://www.w3.org/2000/svg" width="24" height="24" viewBox="0 0 24 24"><path d="M5.495 2H22V0H5a3 3 0 0 0-3 3v18a3 3 0 0 0 3 3h17V4H5.495c-1.375 0-1.375-2 0-2zm6.681 17a1.042 1.042 0 1 1 .004-2.084A1.042 1.042 0 0 1 12.176 19zm.034-10c1.644 0 2.81 1.015 2.79 2.666-.015 1.134-.705 1.878-1.259 2.477-.832.896-.766 1.336-.766 1.941h-1.644c0-1.311-.045-1.84 1.174-2.999.469-.446.839-.799.788-1.493-.048-.66-.599-1.004-1.118-1.004-.883 0-1.26.785-1.26 1.746H9.268C9.268 10.122 10.53 9 12.21 9z"/></svg>